# xmcd
#
# Track frame offsets:
#	182
#	16507
#	34970
#	47112
#	69187
#	86010
#	101730
#	119665
#	138252
#	157182
#	173725
#	190650
#	211455
#
# Disc length: 3246
#
# Revision: 3
# Processed by: cddbd v1.5.1PL0 Copyright (c) Steve Scherf et al.
# Submitted via: FreeRIP 2.51 
# Normalized: r2:DSETVAR1,TDELIM( - )
#
DISCID=af0cac0d
DTITLE=Various Artist - Part Over Here 98
DYEAR=1998
DGENRE=Pop
TTITLE0=Busta Rhymes - Put Your Hands Where My Eyes Could See
TTITLE1=Missy Elliot - The Rain (Supa Dupa Fly)
TTITLE2=Heavy D - Big Daddy
TTITLE3=BlackStreet - No Diggity
TTITLE4=Billy Lawrence - Come On(feat Mc Lyte)
TTITLE5=MC Lyte - Cold Rock A Party(feat Missy Elliot)
TTITLE6=Rampage - Take It To The Streets(feat. Billy Lawrence)
TTITLE7=702 - Steelo(feat Missy Elliot)
TTITLE8=Lost Boyz - Love, Peace and Napiness
TTITLE9=Keith Sweat - Twisted(feat. Kut Klose)
TTITLE10=En Vogue - Whatever
TTITLE11=Ray J - Let It Go
TTITLE12=Mark Morrison - Return of the Mack
EXTD=1998 Elektra Entertainment Group
EXTT0=
EXTT1=
EXTT2=
EXTT3=
EXTT4=
EXTT5=
EXTT6=
EXTT7=
EXTT8=
EXTT9=
EXTT10=
EXTT11=
EXTT12=
PLAYORDER=
